<svg width="110" height="32" viewBox="0 0 110 32" fill="none" xmlns="http://www.w3.org/2000/svg">
<g id="logo_cieba" clip-path="url(#clip0_1005_14602)">
<path id="Vector" d="M11.4866 10.4416C12.6819 10.4218 13.8712 10.6064 14.9998 10.9868C15.9709 11.3161 16.8797 11.7966 17.6898 12.4094C18.4175 12.967 19.0338 13.6479 19.5083 14.4188C19.9452 15.1282 20.2852 15.8891 20.5197 16.6827L16.3287 18.1573C16.2119 17.7174 16.0422 17.2922 15.8229 16.8904C15.5893 16.4554 15.2737 16.0662 14.8922 15.7429C14.4809 15.393 14.0093 15.1154 13.4988 14.9225C12.8777 14.7008 12.2186 14.5951 11.5566 14.611C10.8497 14.6071 10.1492 14.7395 9.49603 15.0004C8.85038 15.2615 8.26648 15.6466 7.7798 16.1323C7.25778 16.6594 6.85154 17.2828 6.58545 17.9652C6.27558 18.7758 6.12593 19.6352 6.14428 20.499C6.12702 21.3695 6.27659 22.2356 6.58545 23.0536C6.8514 23.7484 7.25732 24.3855 7.7798 24.928C8.27103 25.4314 8.87191 25.8234 9.53908 26.0755C10.2061 26.3341 10.9185 26.4663 11.6373 26.4649C12.3218 26.479 13.0023 26.3607 13.6387 26.117C14.1739 25.9088 14.6674 25.6119 15.0966 25.2396C15.4678 24.9088 15.7868 24.5275 16.0435 24.1076C16.2708 23.746 16.4515 23.3589 16.5815 22.955L20.7026 24.3984C20.1623 26.0438 19.147 27.5063 17.7759 28.6145C16.9859 29.2387 16.0905 29.727 15.1289 30.058C14.011 30.4363 12.8326 30.6209 11.648 30.6032C10.2615 30.6159 8.88688 30.3562 7.60765 29.8399C6.39151 29.3543 5.29251 28.6313 4.37964 27.7163C2.46534 25.771 1.41332 23.1816 1.44752 20.499C1.43415 19.1191 1.69531 17.7495 2.21686 16.4646C2.70326 15.2693 3.43528 14.1813 4.36887 13.2662C5.27922 12.3743 6.36597 11.668 7.5646 11.1893C8.81912 10.6866 10.166 10.434 11.5243 10.4468M11.5243 9.05004C9.97416 9.04041 8.43765 9.32993 7.00509 9.90158C5.61641 10.4625 4.35903 11.2876 3.30805 12.3278C2.25706 13.368 1.434 14.6019 0.887989 15.9558C0.297931 17.4058 0.00204815 18.9517 0.0164277 20.5094C-0.0198522 23.5515 1.17492 26.4873 3.34666 28.6924C4.3933 29.7407 5.65112 30.5712 7.04274 31.1328C8.49886 31.7217 10.0639 32.0185 11.6427 32.0051C12.9963 32.0224 14.3424 31.8079 15.6185 31.3716C16.7373 30.9867 17.7785 30.4175 18.6959 29.6893C19.5226 29.0307 20.2394 28.2531 20.821 27.384C21.3564 26.5891 21.7781 25.728 22.0745 24.8242L22.4834 23.5573L21.1922 23.1003L17.0657 21.6569L15.6131 21.1377L15.1881 22.5707C15.0965 22.8642 14.9663 23.1451 14.8007 23.4067C14.6167 23.71 14.3864 23.9848 14.1175 24.2219C13.8146 24.4811 13.4668 24.6867 13.0899 24.8294C12.6288 25.0016 12.137 25.0845 11.6427 25.0734C11.1085 25.0752 10.5789 24.9782 10.0825 24.7878C9.59664 24.6113 9.15746 24.3329 8.79663 23.9727C8.40521 23.5634 8.10167 23.0834 7.90355 22.5604C7.65471 21.8949 7.53613 21.1907 7.55385 20.4834C7.53859 19.7937 7.6553 19.1072 7.89816 18.4584C8.10513 17.9601 8.41025 17.5051 8.79663 17.1188C9.14798 16.7657 9.57107 16.4865 10.0394 16.2985C10.9699 15.949 11.9978 15.9251 12.9446 16.231C13.2985 16.3626 13.6262 16.5523 13.913 16.7917C14.1609 17.0067 14.3684 17.2614 14.5264 17.5446C14.6921 17.853 14.8202 18.1788 14.9083 18.5156L15.3011 20.0109L16.8075 19.4917L21.0093 18.0119L22.2628 17.5706L21.9078 16.3348C21.639 15.4252 21.2502 14.5527 20.7511 13.7387C20.1892 12.822 19.4601 12.0111 18.599 11.345C17.6723 10.6421 16.6353 10.0865 15.5271 9.69907C14.2378 9.26324 12.8794 9.04885 11.5135 9.06561L11.5243 9.05004Z" fill="white"/>
<path id="Vector_2" d="M30.1337 1.39165C30.5383 1.38748 30.9397 1.46132 31.3144 1.60884C31.689 1.75636 32.0294 1.97459 32.3155 2.25073C32.6017 2.52687 32.8278 2.85536 32.9806 3.21695C33.1335 3.57853 33.21 3.96595 33.2057 4.35645C33.2138 4.74295 33.1391 5.1269 32.9863 5.48427C32.8336 5.84165 32.6061 6.16476 32.318 6.43336C32.0307 6.70705 31.6892 6.92212 31.3139 7.06574C30.9387 7.20936 30.5373 7.27859 30.1337 7.26931C29.735 7.27795 29.3387 7.20832 28.9687 7.06461C28.5988 6.92091 28.263 6.70615 27.9817 6.43336C27.6936 6.16476 27.4661 5.84165 27.3133 5.48427C27.1606 5.1269 27.0859 4.74295 27.094 4.35645C27.0854 3.96602 27.1597 3.57803 27.3124 3.21637C27.4651 2.85472 27.6928 2.52705 27.9817 2.25357C28.2593 1.97434 28.5939 1.75361 28.9642 1.60528C29.3346 1.45694 29.7328 1.3842 30.1337 1.39165ZM32.4686 11.0285V30.0219H27.8203V11.0285H32.4686ZM30.1337 -0.0154561C29.5452 -0.0205365 28.9617 0.089056 28.4181 0.306748C27.8746 0.524439 27.3821 0.845754 26.9702 1.25146C26.5483 1.65536 26.2146 2.13695 25.9891 2.66764C25.7636 3.19833 25.6509 3.76733 25.6575 4.34087C25.6547 4.90895 25.7685 5.47192 25.9924 5.99729C26.2164 6.52265 26.546 6.99999 26.9622 7.40168C27.3784 7.80338 27.873 8.12148 28.4174 8.3376C28.9617 8.55373 29.5451 8.66359 30.1337 8.66083C30.7237 8.66879 31.3095 8.56365 31.8572 8.35153C32.4048 8.1394 32.9034 7.8245 33.324 7.42507C33.7508 7.0252 34.0884 6.54534 34.316 6.01496C34.5436 5.48457 34.6564 4.91488 34.6475 4.34087C34.6518 3.76764 34.538 3.19928 34.3127 2.66888C34.0874 2.13847 33.755 1.65659 33.335 1.25124C32.915 0.845889 32.4157 0.525172 31.8661 0.307714C31.3165 0.0902563 30.7277 -0.0196002 30.1337 -0.0154561ZM33.8997 9.61621H26.3677V31.3978H33.8997V9.63179V9.61621Z" fill="white"/>
<path id="Vector_3" d="M48.7374 10.4419C50.1256 10.4204 51.5049 10.6585 52.7994 11.1428C53.9499 11.5798 54.9847 12.2592 55.8283 13.1315C56.6736 14.0314 57.3134 15.0928 57.7059 16.2468C58.156 17.5612 58.376 18.9387 58.3569 20.3228C58.3569 20.6862 58.3569 21.003 58.3139 21.273C58.3065 21.4398 58.2794 21.6053 58.2332 21.7662H43.847C43.8616 22.4546 44.0266 23.1323 44.3312 23.7549C44.6187 24.3398 45.0165 24.868 45.5041 25.3126C45.9899 25.7588 46.5596 26.1113 47.1826 26.351C47.8307 26.6016 48.5235 26.7268 49.2217 26.7197C50.4018 26.7945 51.5704 26.4572 52.5142 25.7695C53.2664 25.1396 53.8247 24.3223 54.1282 23.407L58.0879 24.6168C57.8224 25.4478 57.4289 26.2354 56.9205 26.9533C56.415 27.6816 55.7878 28.3237 55.0644 28.8537C54.2785 29.4135 53.4049 29.8482 52.4766 30.1414C51.4334 30.463 50.3435 30.6208 49.2485 30.6087C47.9349 30.6152 46.6316 30.3827 45.4072 29.9233C44.2124 29.4811 43.1259 28.8039 42.2168 27.9347C41.2695 27.0199 40.5197 25.9327 40.011 24.7362C39.439 23.3676 39.1573 21.9022 39.1825 20.4266C39.1623 19.024 39.4311 17.6314 39.9734 16.3299C40.4636 15.1608 41.1834 14.0941 42.0931 13.1886C42.9719 12.3283 44.0151 11.6406 45.1651 11.1636C46.3005 10.6863 47.5259 10.4406 48.7643 10.4419M43.9923 18.438H53.6763C53.6494 17.9042 53.5331 17.3782 53.332 16.8803C53.1304 16.3752 52.8206 15.917 52.4228 15.5355C51.9942 15.1291 51.4856 14.8095 50.9271 14.5957C50.2559 14.3492 49.5415 14.231 48.8235 14.2478C48.1511 14.236 47.4837 14.3616 46.8652 14.6165C46.3125 14.8458 45.8117 15.1774 45.3911 15.5926C44.9877 15.9906 44.6584 16.4525 44.4173 16.9582C44.1844 17.4288 44.0474 17.9382 44.0138 18.4587M48.7859 9.06592C47.351 9.06788 45.9319 9.35417 44.6163 9.90706C43.2949 10.4545 42.0962 11.2445 41.087 12.2332C40.0457 13.2647 39.2217 14.4814 38.6607 15.8159C38.0482 17.2876 37.7428 18.8615 37.7622 20.4474C37.7364 22.1085 38.0565 23.7576 38.7037 25.297C39.2881 26.6573 40.1457 27.8925 41.2269 28.9316C42.2747 29.9355 43.528 30.7172 44.9069 31.2266C46.2985 31.7455 47.7782 32.0096 49.2701 32.0054C50.5212 32.0243 51.7673 31.849 52.9608 31.4862C54.0361 31.1479 55.0479 30.6447 55.9574 29.996C56.823 29.3699 57.5756 28.6103 58.1848 27.7477C58.7697 26.914 59.2264 26.0028 59.5405 25.0426L59.9655 23.7185L58.599 23.298L58.1848 23.1733H59.1855L59.5836 22.3841C59.7161 22.0795 59.789 21.7538 59.7988 21.4235C59.831 21.1016 59.8472 20.733 59.8472 20.3384C59.8672 18.799 59.6217 17.2671 59.1209 15.8055C58.6599 14.4741 57.9159 13.2503 56.9366 12.2124C55.9475 11.1888 54.7345 10.3906 53.3858 9.87591C51.9198 9.32653 50.3584 9.05334 48.7859 9.07112V9.06592ZM46.0044 17.062C46.128 16.8773 46.2684 16.7035 46.424 16.5428C46.7146 16.2555 47.0623 16.0277 47.4462 15.873C47.8814 15.6948 48.3509 15.6081 48.8235 15.6186C49.3536 15.6034 49.8818 15.6881 50.3784 15.8678C50.7594 16.0088 51.1071 16.2224 51.4006 16.4961C51.569 16.6581 51.7138 16.8415 51.831 17.0413L46.0044 17.062ZM45.6816 23.1681H52.7563C52.5227 23.7728 52.1318 24.3092 51.6211 24.7258C50.9365 25.1909 50.1045 25.4096 49.2701 25.3437C48.7562 25.3499 48.2461 25.2581 47.769 25.0737C47.3134 24.902 46.8967 24.6463 46.5424 24.3208C46.1829 23.9963 45.8907 23.6086 45.6816 23.1785V23.1681Z" fill="white"/>
<path id="Vector_4" d="M69.677 1.781V13.3702C70.2394 12.5191 71.0293 11.8302 71.9635 11.3763C73.1661 10.7727 74.5093 10.4776 75.8641 10.5196C77.2112 10.4941 78.5479 10.7528 79.7807 11.2777C80.8841 11.7633 81.859 12.4841 82.6321 13.3857C83.4173 14.3139 84.0076 15.3809 84.3699 16.5271C84.7694 17.7906 84.9671 19.1055 84.9563 20.4265C84.9682 21.7842 84.7501 23.1347 84.3107 24.4245C83.9173 25.5954 83.2925 26.6816 82.4707 27.623C81.6721 28.5228 80.6785 29.2424 79.5601 29.731C78.346 30.2492 77.0301 30.5078 75.7026 30.4891C74.4306 30.5214 73.1712 30.239 72.0442 29.6687C71.0524 29.166 70.221 28.4121 69.6394 27.488V30.0218H65.0717V1.781H69.677ZM74.9333 26.4651C75.6492 26.4839 76.3607 26.3503 77.0171 26.0739C77.6735 25.7976 78.2589 25.3851 78.7316 24.8659C79.7251 23.8032 80.2237 22.3338 80.2272 20.4576C80.2308 18.5815 79.7341 17.1225 78.737 16.0805C78.2408 15.5937 77.6492 15.2071 76.9966 14.9431C76.344 14.6792 75.6436 14.5433 74.936 14.5433C74.2284 14.5433 73.5279 14.6792 72.8754 14.9431C72.2228 15.2071 71.6312 15.5937 71.135 16.0805C70.1271 17.119 69.6232 18.5815 69.6232 20.468C69.6096 21.3234 69.7461 22.1748 70.0267 22.9863C70.2675 23.6789 70.6437 24.3205 71.135 24.8763C71.5956 25.3898 72.169 25.7977 72.8136 26.0705C73.4784 26.3439 74.1945 26.4818 74.9172 26.4755M71.1081 0.394672H63.6299V31.4185H71.0812V30.7487L71.3502 30.8993C72.6917 31.5774 74.1886 31.9184 75.7026 31.891C77.2383 31.909 78.7598 31.6061 80.1627 31.0031C81.472 30.4301 82.6374 29.5905 83.579 28.542C84.516 27.4618 85.2317 26.2196 85.688 24.8814C86.1761 23.4474 86.4196 21.9463 86.4089 20.4369C86.4193 18.9734 86.1998 17.5169 85.7579 16.1169C85.3381 14.8007 84.6585 13.5754 83.7565 12.5082C82.8449 11.448 81.6974 10.5997 80.3994 10.0263C78.9766 9.41486 77.4321 9.11179 75.8748 9.13846C74.2729 9.09874 72.6873 9.45629 71.2695 10.1769L71.135 10.2496V0.384277L71.1081 0.394672ZM74.9172 25.0839C74.3941 25.0915 73.8753 24.9924 73.3946 24.7932C72.9433 24.606 72.5421 24.3219 72.2218 23.9624C71.8535 23.5372 71.5707 23.0495 71.3879 22.5242C71.161 21.8541 71.0519 21.1521 71.0651 20.4472C71.0651 18.8896 71.4309 17.7888 72.1841 17.0203C72.5445 16.6717 72.9725 16.395 73.4438 16.2063C73.9151 16.0175 74.4203 15.9203 74.9306 15.9203C75.4409 15.9203 75.9461 16.0175 76.4174 16.2063C76.8887 16.395 77.3168 16.6717 77.6771 17.0203C78.4034 17.7732 78.7531 18.9363 78.7531 20.4576C78.7531 21.979 78.3819 23.1265 77.6287 23.9365C77.2916 24.3114 76.8714 24.6083 76.3992 24.8051C75.927 25.002 75.415 25.0937 74.901 25.0736L74.9172 25.0839Z" fill="white"/>
<path id="Vector_5" d="M99.5358 10.4417C100.848 10.4118 102.154 10.6106 103.393 11.0284C104.363 11.3602 105.246 11.8918 105.981 12.5861C106.635 13.2267 107.134 14.0001 107.439 14.85C107.748 15.7152 107.904 16.6244 107.902 17.5396V26.9843C107.893 27.678 107.927 28.3715 108.004 29.0612C108.069 29.5805 108.117 29.9128 108.144 30.0166H103.781C103.719 29.7938 103.678 29.5662 103.657 29.3364C103.594 28.7587 103.567 28.1778 103.576 27.597C102.928 28.569 102.027 29.3598 100.963 29.8901C99.899 30.4204 98.7093 30.6717 97.5129 30.6189C96.5689 30.6318 95.6309 30.4733 94.7476 30.1516C93.9682 29.8644 93.2538 29.4342 92.644 28.8847C92.0757 28.3648 91.6219 27.7397 91.3097 27.0466C91.0049 26.3463 90.8479 25.5943 90.8479 24.8347C90.8479 24.0751 91.0049 23.3231 91.3097 22.6228C91.6123 21.9853 92.0377 21.4091 92.5633 20.9249C93.1086 20.429 93.748 20.0394 94.4463 19.7774C95.1983 19.4806 95.9838 19.2697 96.7866 19.1492L101.838 18.4119C102.271 18.3907 102.681 18.217 102.99 17.9238C103.194 17.6724 103.3 17.3602 103.291 17.0411C103.298 16.6594 103.223 16.2804 103.07 15.9283C102.917 15.5761 102.69 15.2584 102.403 14.9953C101.812 14.438 100.87 14.1594 99.5788 14.1594C99.0552 14.1271 98.5303 14.1985 98.0363 14.369C97.5423 14.5396 97.0896 14.8057 96.7059 15.1511C96.0368 15.8088 95.6227 16.6687 95.5331 17.5863L91.229 16.6517C91.3162 15.8301 91.5781 15.0346 91.9984 14.3152C92.4307 13.5566 93.0054 12.8823 93.6931 12.3265C94.442 11.7254 95.2991 11.2625 96.2217 10.961C97.2802 10.6069 98.394 10.4312 99.5143 10.4417M98.3845 27.057C99.0127 27.0603 99.6381 26.9745 100.241 26.8026C100.815 26.6449 101.346 26.3665 101.795 25.9874C102.267 25.5701 102.635 25.0554 102.871 24.4816C103.158 23.7345 103.293 22.9413 103.27 22.1451V21.2728L98.1424 22.0153C97.4609 22.1229 96.8198 22.3983 96.2809 22.8149C96.0195 23.0336 95.814 23.3077 95.6805 23.6158C95.5471 23.9238 95.4892 24.2575 95.5115 24.5907C95.5101 24.9096 95.5741 25.2255 95.6996 25.5205C95.8252 25.8154 96.01 26.0835 96.2432 26.3093C96.529 26.57 96.868 26.7703 97.2386 26.8972C97.6092 27.0242 98.0031 27.0751 98.3952 27.0466M99.5251 9.03461C98.244 9.02362 96.9703 9.22381 95.759 9.62654C94.675 9.9883 93.6673 10.5353 92.7839 11.2413C91.9618 11.9081 91.2726 12.7139 90.7502 13.6194C90.2365 14.5078 89.9178 15.4887 89.8141 16.5011L89.6904 17.7213L90.9332 17.9913L93.6232 18.578C92.8699 18.9045 92.1774 19.3483 91.5734 19.8917C90.9156 20.4995 90.3826 21.2218 90.0024 22.0205C89.6154 22.8999 89.416 23.8455 89.416 24.801C89.416 25.7564 89.6154 26.702 90.0024 27.5814C90.3909 28.445 90.9564 29.2239 91.6648 29.8712C92.4093 30.5465 93.2827 31.0756 94.2365 31.4289C95.2875 31.8152 96.4045 32.0072 97.5291 31.9949C99.1767 32.0535 100.805 31.6397 102.21 30.8058C102.307 30.7487 102.398 30.6812 102.495 30.6189V30.6449L102.898 31.4081H110.005L109.548 29.6739C109.548 29.6739 109.516 29.5129 109.44 28.8951C109.372 28.2569 109.341 27.6155 109.349 26.9739V17.5396C109.353 16.4691 109.171 15.4055 108.811 14.393C108.437 13.3506 107.826 12.4017 107.025 11.6152C106.145 10.7744 105.086 10.1293 103.921 9.72519C102.517 9.24746 101.035 9.01707 99.5466 9.045L99.5251 9.03461ZM96.9642 17.6953C97.0204 17.0963 97.2904 16.5347 97.7281 16.1065C97.9783 15.8951 98.2705 15.735 98.5868 15.6359C98.9031 15.5368 99.2369 15.5009 99.5681 15.5302C100.209 15.4693 100.852 15.6253 101.387 15.9715C101.529 16.0983 101.643 16.2524 101.721 16.4241C101.799 16.5957 101.839 16.7811 101.838 16.9684L101.623 17.01L96.9642 17.6953ZM98.3952 23.4068L101.801 22.8876C101.769 23.2438 101.684 23.5936 101.548 23.9261C101.4 24.3043 101.162 24.6439 100.854 24.9178C100.56 25.1603 100.215 25.3376 99.8425 25.437C99.3723 25.5689 98.8849 25.6354 98.3952 25.6343C98.009 25.6703 97.6234 25.5605 97.3192 25.328C97.213 25.2302 97.1286 25.1126 97.0713 24.9822C97.0139 24.8519 96.9848 24.7115 96.9857 24.5699C96.9857 24.0507 97.1524 23.9313 97.2224 23.8741C97.569 23.607 97.9798 23.4285 98.4168 23.3549L98.3952 23.4068Z" fill="white"/>
</g>
<defs>
<clipPath id="clip0_1005_14602">
<rect width="110" height="32" fill="white"/>
</clipPath>
</defs>
</svg>
